<?xml version="1.0" standalone="no"?>
<!DOCTYPE svg PUBLIC "-//W3C//DTD SVG 20010904//EN"
 "http://www.w3.org/TR/2001/REC-SVG-20010904/DTD/svg10.dtd">
<svg version="1.0" xmlns="http://www.w3.org/2000/svg"
 width="332.000000pt" height="121.000000pt" viewBox="0 0 332.000000 121.000000"
 preserveAspectRatio="xMidYMid meet">

<g transform="translate(0.000000,121.000000) scale(0.100000,-0.100000)"
fill="#000000" stroke="none">
<path d="M2455 1009 c-65 -21 -127 -39 -136 -39 -9 0 -22 -7 -29 -15 -19 -22
-28 -18 -22 10 3 20 0 25 -16 25 -27 0 -49 -27 -34 -42 9 -9 9 -15 0 -25 -9
-11 -2 -13 38 -9 28 3 51 1 55 -6 5 -7 18 -6 43 3 19 7 38 10 42 6 4 -3 8
-122 10 -264 4 -266 16 -361 44 -355 7 2 17 -3 21 -10 6 -10 11 -10 20 -1 8 8
5 33 -11 97 -20 79 -21 107 -18 325 l3 239 45 16 c25 9 57 16 71 16 35 0 64
23 56 45 -5 11 -14 15 -27 12 -11 -3 -18 -1 -14 4 9 15 -16 10 -141 -32z"/>
<path d="M154 906 c-33 -15 -64 -67 -64 -110 0 -44 25 -88 80 -141 64 -62 81
-93 84 -156 4 -54 -2 -62 -69 -99 -40 -21 -40 -22 -7 -15 17 4 32 4 32 1 0 -3
-27 -10 -60 -17 -33 -6 -60 -15 -60 -19 0 -3 11 -13 25 -20 20 -11 35 -11 80
-1 83 19 108 44 113 118 6 90 -18 160 -79 230 -28 32 -58 73 -67 90 -14 30
-14 34 3 54 17 17 29 20 82 17 66 -3 73 1 47 26 -14 15 -14 16 3 17 14 0 13 2
-5 10 -13 5 -20 13 -17 19 9 15 -84 12 -121 -4z"/>
<path d="M2980 913 c-28 -10 -59 -46 -70 -79 -19 -55 2 -107 74 -183 77 -82
83 -93 85 -158 l1 -52 -52 -31 c-36 -21 -44 -29 -25 -24 15 3 27 4 27 1 0 -3
-25 -11 -56 -17 -58 -12 -67 -28 -22 -44 38 -13 136 21 162 57 16 21 20 40 18
84 -4 95 -26 148 -92 226 -91 107 -80 153 36 145 46 -3 54 0 54 15 0 9 -6 17
-12 17 -10 0 -9 3 1 9 11 7 9 10 -9 16 -18 6 -20 9 -9 16 15 10 -85 11 -111 2z"/>
<path d="M1152 878 c-8 -20 -15 -108 -19 -226 -3 -106 -9 -189 -14 -185 -4 4
-26 73 -49 152 -23 80 -46 153 -51 163 -15 28 -52 23 -66 -9 -25 -61 -40 -334
-24 -433 l7 -45 12 55 c6 30 13 66 15 80 3 17 5 13 6 -12 0 -21 4 -38 9 -38 4
0 6 21 4 47 -3 58 12 174 21 153 3 -8 13 -42 22 -74 11 -39 19 -55 25 -46 11
17 43 -32 46 -71 3 -37 11 -49 34 -49 38 0 40 11 73 465 2 33 8 69 12 79 7 16
5 18 -13 14 -12 -4 -22 -2 -22 3 0 20 -16 7 -28 -23z"/>
<path d="M388 868 c-9 -13 -16 -26 -16 -31 -1 -4 -8 -20 -16 -35 -21 -43 -28
-133 -16 -224 21 -159 60 -230 134 -244 34 -6 42 -3 68 23 26 27 31 41 39 113
20 180 -22 369 -90 404 -44 23 -86 20 -103 -6z m73 -81 c24 -18 62 -145 62
-207 0 -58 -17 -168 -28 -178 -15 -15 -42 20 -64 84 -29 83 -37 268 -12 297
16 20 21 20 42 4z"/>
<path d="M641 867 c-5 -13 -16 -29 -25 -36 -11 -9 -16 -30 -16 -65 0 -99 40
-266 63 -266 7 0 25 -24 40 -54 27 -52 58 -76 96 -76 42 0 75 74 95 215 13 94
10 255 -5 255 -5 0 -9 -4 -9 -10 0 -17 -20 -11 -26 8 -3 9 -8 24 -11 32 -3 12
-8 9 -23 -9 -16 -22 -17 -40 -12 -166 3 -101 2 -144 -7 -149 -6 -4 -11 -15
-11 -24 0 -15 2 -15 10 -2 9 13 10 13 10 0 0 -27 -12 -60 -22 -60 -16 0 -67
122 -83 200 -9 41 -15 106 -13 144 3 63 1 69 -20 77 -19 7 -24 5 -31 -14z"/>
<path d="M1276 867 c-20 -15 -20 -16 -29 -380 -3 -92 -7 -171 -11 -174 -13
-13 -5 -21 22 -21 40 0 92 47 147 132 27 42 52 76 56 76 4 0 14 19 24 42 36
92 -8 276 -77 318 -38 23 -105 26 -132 7z m101 -69 c41 -46 64 -180 43 -256
-13 -49 -89 -130 -102 -109 -10 15 -10 105 -1 265 5 105 8 122 23 122 9 0 26
-10 37 -22z"/>
<path d="M2796 860 c-34 -13 -53 -16 -62 -9 -8 6 -13 5 -18 -6 -8 -23 -26 -18
-27 8 -1 20 -2 20 -6 2 -3 -11 -12 -27 -20 -36 -9 -10 -12 -26 -8 -42 4 -14 2
-28 -4 -31 -18 -12 -13 -39 5 -32 15 6 16 0 11 -39 -4 -25 -14 -56 -23 -70
-15 -24 -15 -27 0 -44 12 -13 16 -37 16 -92 0 -72 -1 -75 -30 -91 -41 -23 -39
-41 3 -33 l32 6 -25 -20 -25 -21 23 0 c12 0 30 -5 40 -11 24 -15 74 4 66 26
-9 22 12 43 67 66 34 15 48 27 52 45 3 20 0 24 -19 24 -13 0 -42 -7 -65 -16
-53 -22 -60 -12 -57 76 l3 65 60 33 c44 24 52 32 32 29 -20 -3 -25 -1 -18 6 6
6 11 17 11 25 0 14 -21 12 -64 -4 -13 -5 -16 1 -16 34 0 39 0 40 63 62 68 26
97 45 97 68 0 13 -27 42 -40 41 -3 0 -27 -9 -54 -19z"/>
<path d="M2255 808 c-14 -46 -17 -107 -16 -288 2 -234 6 -262 29 -258 10 1 23
-1 31 -6 12 -8 13 -1 7 40 -6 38 -16 364 -16 502 0 23 -28 31 -35 10z"/>
<path d="M1906 754 c-3 -11 -19 -25 -36 -31 -16 -6 -33 -20 -36 -30 -4 -10
-14 -26 -22 -35 -10 -12 -11 -18 -4 -18 7 0 12 5 12 10 0 6 10 8 24 4 13 -3
27 -1 30 5 4 6 13 11 20 11 17 0 25 -53 28 -175 l1 -90 -29 -13 c-30 -14 -59
-58 -43 -67 5 -3 24 -3 43 0 32 7 34 6 41 -31 4 -22 10 -33 14 -26 4 7 18 11
32 10 23 -3 24 -1 21 44 -4 45 -3 47 35 66 83 43 119 78 137 130 24 76 21 116
-10 141 -15 12 -36 21 -48 21 -17 0 -21 7 -24 37 -1 20 -8 41 -15 45 -17 11
-131 6 -139 -6 -6 -8 -11 -6 -17 3 -7 11 -10 10 -15 -5z m104 -69 c-13 -16
-40 -20 -40 -7 0 14 12 22 33 22 16 0 17 -3 7 -15z m120 -65 c-12 -8 -12 -10
5 -10 17 0 17 -2 5 -10 -10 -6 -11 -10 -2 -10 22 0 12 -41 -18 -72 -31 -31
-39 -44 -17 -32 8 5 8 2 -2 -9 -7 -9 -20 -17 -28 -17 -8 0 -28 -7 -44 -16 -17
-8 -33 -14 -35 -11 -7 6 -14 179 -8 188 3 5 40 9 82 9 53 0 72 -3 62 -10z"/>
</g>
</svg>
