<svg id="Layer_1" data-name="Layer 1" xmlns="http://www.w3.org/2000/svg" viewBox="0 0 1200 1200"><path d="M31.19,974.38V284.09a64.24,64.24,0,0,0,2.05-7.35c8.37-52.42,54.88-92.61,108.19-92.63q459-.17,918.09-.06c24.47,0,46.06,8.19,65.67,22.55,22.12,16.2,34.22,38.86,42.43,64.17V987.7a41.41,41.41,0,0,0-2.12,4.9c-13.84,48.35-56.67,81.75-106,81.77q-459.61.14-919.23-.1c-33.64,0-61.05-14.7-82.93-40C42.46,1017,35.71,996.17,31.19,974.38ZM600.36,259.69H149.83c-29.33,0-43,13.84-43,43.59l0,650.27c0,3-.1,5.92,0,8.88,1,21.66,16.16,36.28,37.94,36.32,38.1.07,76.2-.15,114.3.18,6.82.07,10.49-1.93,13.56-8.17,18.95-38.62,38.58-76.91,57.47-115.56,8.25-16.88,21.43-24.75,39.68-24.75q230.82-.08,461.63,0c18.3,0,31.3,8.19,39.52,25,18.73,38.32,38.21,76.27,57,114.55,3.15,6.41,6.6,9.06,14.14,9,37.35-.48,74.71-.2,112.07-.23,24.92,0,39.85-14.84,39.86-40q.08-329,0-658c0-26.57-14.62-41.05-41-41.06ZM847.79,998.55C836,974.87,825,952.47,813.37,930.43c-1.31-2.49-6.49-4.13-9.87-4.13Q600.55,926,397.6,926c-6,0-9.2,1.62-11.78,7.15-6.84,14.66-14.43,29-21.63,43.47-3.47,7-6.73,14.09-10.48,22Z"/><path d="M601.65,479.94q133.14,0,266.29,0c39.14,0,74.47,11.42,103.36,38.24,44.1,40.92,60.29,91.85,44.56,149.79-15.44,56.87-54,92.75-111.73,106.53a157.78,157.78,0,0,1-36.22,3.86q-267.4.35-534.82.13c-38.29,0-73-10.93-101.65-36.81-45.07-40.64-61.81-91.54-46.51-150.11,14.93-57.16,53.44-93.09,110.9-107.43,12.73-3.18,26.32-4,39.52-4C424.11,479.78,512.88,479.94,601.65,479.94ZM742,556.27H459c25.25,49,24.8,97.47.29,145.7H741.92C717,653,717.16,604.94,742,556.27ZM401.83,629.15A73.27,73.27,0,0,0,329,555.71c-40.29-.26-73.6,33.34-73.53,74.16.07,39.78,33.91,73.26,73.68,72.87A73.13,73.13,0,0,0,401.83,629.15Zm397.37-.37c-.07,41.15,33,74.48,73.45,74s73-33.46,73-73.63S912.67,556,872.45,555.72,799.26,588.46,799.2,628.78Z"/><path d="M600,332.35q189.18,0,378.38,0c22.9,0,35.67,8.6,41.34,27.47,6,19.76-6.47,41.72-26.58,46.33a79.65,79.65,0,0,1-17.57,1.8q-375.06.12-750.1.06c-24.46,0-37.83-8.49-44-27.62-7.19-22.42,8.85-46.13,32.36-47.72,4.79-.33,9.61-.32,14.42-.32Q414.12,332.33,600,332.35Z"/></svg>