<svg id="Layer_1" data-name="Layer 1" xmlns="http://www.w3.org/2000/svg" viewBox="0 0 1200 1200"><defs><style>.cls-1{font-size:160px;font-family:DinerNormal, Diner;}.cls-1,.cls-2{fill:#fff;}.cls-3{fill:#100d08;}</style></defs><text class="cls-1" transform="translate(-1143.91 879.85)">SOUND BITES</text><rect class="cls-2" x="368.32" y="168.35" width="22.43" height="496.56"/><rect class="cls-2" x="406.28" y="168.35" width="36.24" height="496.56"/><rect class="cls-2" x="461.49" y="168.35" width="143.22" height="496.56"/><path class="cls-2" d="M625.41,168.35V664.91c135.8,0,245.89-111.16,245.89-248.28S761.21,168.35,625.41,168.35Z"/><rect class="cls-3" x="479.61" y="547.58" width="14.67" height="16.39" rx="3.02"/><rect class="cls-3" x="514.23" y="546.18" width="54.35" height="17.79" rx="5.18"/><rect class="cls-3" x="478.53" y="582.63" width="63.09" height="17.79" rx="6.96"/><rect class="cls-3" x="569.34" y="582.63" width="17.58" height="17.79" rx="5.77"/><path class="cls-3" d="M523.53,283c-.76-.16-1.53-.28-2.28-.48a9.67,9.67,0,0,1-5.33-3.28,7.32,7.32,0,0,1-.85-8.12,12.85,12.85,0,0,1,7-6.35,15.93,15.93,0,0,1,9.37-1.1,1.36,1.36,0,0,0,.29,0V222.47l47.44-9.67v2.26c0,15.74-.1,31.48,0,47.22a11.09,11.09,0,0,1-6,10.4A15.16,15.16,0,0,1,559.66,274,7.94,7.94,0,0,1,556,261.18a14.81,14.81,0,0,1,8.77-5.4,15.2,15.2,0,0,1,6.44-.14,2.23,2.23,0,0,0,.26,0v-28l-32.12,6.54v.77c0,11.9-.08,23.8,0,35.7a10.84,10.84,0,0,1-5,9.5,15.91,15.91,0,0,1-7.46,2.8,1.35,1.35,0,0,0-.32.11Z"/><path class="cls-3" d="M489.08,366l-.57-.07a11.77,11.77,0,0,1-6.19-2.46,7,7,0,0,1-2.57-3.89,7.28,7.28,0,0,1-.12-2,11,11,0,0,1,.66-3.2,9.63,9.63,0,0,1,4.26-5,15.49,15.49,0,0,1,4.83-1.8,11.4,11.4,0,0,1,2.85-.28,11.81,11.81,0,0,1,5.11,1.34l.11,0v-.27q0-19.68,0-39.36a1.73,1.73,0,0,1,1.34-1.79,2.87,2.87,0,0,1,2.44.25,1.46,1.46,0,0,1,.75,1.34v2.44a3.45,3.45,0,0,0,.88,2.29,8.9,8.9,0,0,0,2.63,2,45.35,45.35,0,0,0,4.47,2.08,48.15,48.15,0,0,1,4.56,2.1,13.38,13.38,0,0,1,3.28,2.4,6.74,6.74,0,0,1,1.85,3.41,7.11,7.11,0,0,1,.13,1.22c0,3.84,0,7.69,0,11.54a2.28,2.28,0,0,1-4.51.48c-.07-.31-.07-.63-.11-.95a2.45,2.45,0,0,0-.7-1.3,7.34,7.34,0,0,0-2.13-1.48c-1.51-.78-3.09-1.38-4.66-2a35.63,35.63,0,0,1-5-2.37l-.6-.37h0v.24q0,12.11,0,24.22a10.08,10.08,0,0,1-1.81,5.87,12.12,12.12,0,0,1-7.57,5.09c-.56.13-1.14.17-1.71.25l-.14,0Z"/><path class="cls-3" d="M623.69,640.16c15.43,0-4.1,0-4.1,0,114.32,0,211.33-97.47,213.53-212a7.38,7.38,0,0,0-7.37-7.45h0A7.34,7.34,0,0,0,818.5,428c-2.28,104.28-90.65,192.93-194.76,192.9h0Z"/><path class="cls-3" d="M625.26,605.81c13.23,0-3.51,0-3.51,0,98,0,181.18-83.15,183.07-180.89a6.3,6.3,0,0,0-6.32-6.36h0a6.27,6.27,0,0,0-6.21,6.23c-2,89-77.72,164.6-167,164.58h0Z"/><rect class="cls-3" x="818.45" y="387.8" width="14.67" height="16.39" rx="3.02"/><path class="cls-3" d="M688.68,414.24A67.27,67.27,0,0,0,621.41,347V335a79.29,79.29,0,0,1,79.29,79.29"/><path class="cls-3" d="M700.7,414.24a79.29,79.29,0,0,1-79.29,79.29v-12a67.27,67.27,0,0,0,67.27-67.27"/><path class="cls-3" d="M622.62,375c-.6,0-.6,9.85,0,9.85a28.58,28.58,0,1,1,0,57.16c-.6,0-.6,9.86,0,9.86a38.44,38.44,0,0,0,0-76.87Z"/><path class="cls-3" d="M714.14,413.87c0-49-40.7-88.79-90.91-88.79V309.21c59.18,0,107.15,46.86,107.15,104.66"/><path class="cls-3" d="M730.38,413.87c0,57.8-49.19,104.66-109.86,104.66l-.93-14.66c51.48,0,94.55-41,94.55-90"/><text class="cls-1" transform="translate(76.09 879.85)">SOUND BITES</text></svg>