<svg id="Layer_1" data-name="Layer 1" xmlns="http://www.w3.org/2000/svg" viewBox="0 0 1200 1200"><path d="M910.51,601.68q0,196.26,0,392.52c0,6.1.7,12.31-.25,18.26-3.08,19.38-19.37,33.07-38.87,33.37a39.74,39.74,0,0,1-40-32.14c-.86-4.33-.45-8.92-.52-13.39,0-2.17.24-4.35.24-6.52q0-398.85,0-797.69c0-15.85,6-28.21,19.43-36.64,22.75-14.28,56.36,2.07,59.39,28.81a95.82,95.82,0,0,1,.56,10.44Q910.52,400.18,910.51,601.68Z"/><path d="M403,596q0,178.6,0,357.21c0,7.81,1,15.54-1.7,23.26-5.86,16.95-22.45,28.47-40.44,27C340.2,1001.84,325,987.17,323.42,968c-.48-5.6.08-11.3.08-16.95q0-356.77,0-713.55c0-17.3,9.31-32,24.07-38.15,22.71-9.41,49.74,5.17,54.46,29.47a51.76,51.76,0,0,1,.88,9.94Q403,417.39,403,596Z"/><path d="M704.14,599.93q0-118.42,0-236.85c0-16.91,10.78-32.73,26.55-37.75,23.55-7.49,50.06,7.91,52.66,34.73.38,3.89.21,7.84.21,11.76q0,226.82,0,453.63c0,8.54,1.11,17-2,25.38-6.52,17.3-25.16,28.3-44,25.47-18.27-2.75-32.9-18.66-33.72-36.93-.21-4.63.29-9.29.29-13.94Q704.16,712.69,704.14,599.93Z"/><path d="M275.85,593.82q0,94.65,0,189.3c0,6.5.65,13.13-.38,19.47-2.93,18-20.19,31.79-38.88,31.91-19,.12-36.3-13.55-39.36-31.8-1.09-6.5-.58-13.28-.58-19.93q0-186.46,0-372.93c0-1.45,0-2.91,0-4.36.45-18.92,12.41-35.23,29.79-38.71,29.14-5.84,49.13,16.45,49.29,36.89,0,2.17.13,4.35.13,6.53Q275.86,502,275.85,593.82Z"/><path d="M450.25,600.89c0-50.72-.14-101.44.07-152.16.07-17,7.74-29.78,23.23-37.38,18.79-9.23,45,1,52.73,21a50.59,50.59,0,0,1,3.3,17.76q.3,145.41.14,290.82c0,5.5.71,11.08,0,16.48a39.64,39.64,0,0,1-37.27,34.66,40.11,40.11,0,0,1-41.35-30.44,40.61,40.61,0,0,1-1.18-9.89q-.1-75.43-.05-150.85Z"/><path d="M958,600.83q0-76.08,0-152.16c0-16.74,7.43-29.42,22.43-37,17.82-9,42.1-.84,51.67,16.78a41.82,41.82,0,0,1,5.18,20.41q-.09,146.05-.08,292.11c0,7.19.59,14.63-1,21.51-4.56,19.61-24.29,32.18-44.46,29.29a40,40,0,0,1-34.13-39.68q.17-53,.35-105.93C958,631.06,958,616,958,600.83Z"/><path d="M1164.72,601.14c0,21.79-.12,43.59,0,65.38.16,22.94-17.89,41.26-40.67,41A40.23,40.23,0,0,1,1084.28,666c.35-17.28.51-34.57.57-51.85.09-27.33,0-54.65,0-82a39.53,39.53,0,0,1,24.94-37.05c19.21-7.79,44.06,2.83,51.17,22.34a59.34,59.34,0,0,1,3.21,17.36c.49,11,.14,22.09.14,33.13v33.14Z"/><path d="M149.41,601q0,32.91,0,65.82c0,18.8-11.71,34.58-29.16,39.18-18.64,4.92-37.21-2.88-46.33-19.71a37.84,37.84,0,0,1-4.56-23.11,54.62,54.62,0,0,0,.29-6.52q0-61.26,0-122.51c0-18.86,9.47-33.3,26.45-39.56,14.68-5.41,35.52-.17,46.29,16.24a40.61,40.61,0,0,1,6.73,23c-.1,22.38,0,44.76,0,67.14Z"/><path d="M657.16,601.63c0,21.79-.11,43.59,0,65.38.13,20.61-15.87,38.67-35.94,40.24-22.3,1.75-40.89-12.46-43.8-33.92-.72-5.25-.05-10.67-.05-16q0-62.34,0-124.69c0-17.31,9.68-31.54,25.67-37.89,17-6.75,39.78,2.13,48.64,18.83a42.94,42.94,0,0,1,5,20.48q0,33.8,0,67.58Z"/></svg>