<svg id="Layer_1" data-name="Layer 1" xmlns="http://www.w3.org/2000/svg" viewBox="0 0 1200 1200"><path d="M582.39,70.87H648.9c3.33.65,6.63,1.46,10,1.93,22.22,3.14,44.74,4.84,66.61,9.53,110.76,23.77,205,77.19,281.74,160.59q110,119.61,134.49,280.73c2.33,15.3,4,30.71,6,46.06v66.52c-.64,3-1.47,6-1.89,9-3.08,22.23-4.64,44.77-9.32,66.64-23.3,108.86-75.09,202.1-156.33,278.44q-121.37,114-286.32,138.87c-15,2.25-30,3.95-45,5.9H582.39c-3.33-.65-6.63-1.45-10-1.93-22.21-3.14-44.73-4.84-66.61-9.53C395,1099.84,300.77,1046.42,224.06,963Q114,843.41,89.57,682.29c-2.33-15.3-4-30.71-6-46.06V569.71c.64-3,1.47-6,1.89-9,3.08-22.23,4.64-44.77,9.32-66.64,23.3-108.86,75.09-202.1,156.33-278.44Q372.45,101.6,537.4,76.77C552.35,74.52,567.39,72.82,582.39,70.87Zm32.84,715.24a183.14,183.14,0,0,0,1.35-366.28c-101.3-.62-183.63,81-184.08,182.47A182.92,182.92,0,0,0,615.23,786.11Z"/><path d="M745.19,603a129.55,129.55,0,1,1-129-129.51C688,473.87,745.2,531.31,745.19,603Zm-63.13,0c0-35.78-29.94-66-65.86-66.44-36.07-.43-66.94,30.17-67,66.38,0,35.77,29.95,66,65.86,66.44S682,639.21,682.06,603Z"/></svg>