<svg id="Layer_1" data-name="Layer 1" xmlns="http://www.w3.org/2000/svg" viewBox="0 0 1200 1200"><defs><style>.cls-1{fill:#100d08;}.cls-2{fill:#fff;}</style></defs><rect class="cls-1" width="1200" height="1200"/><rect class="cls-2" x="149.72" y="118.79" width="45.37" height="1004.29"/><rect class="cls-2" x="226.5" y="118.79" width="73.29" height="1004.29"/><rect class="cls-2" x="338.17" y="118.79" width="289.65" height="1004.29"/><path class="cls-2" d="M669.7,118.79V1123.07c274.65,0,497.3-224.82,497.3-502.14S944.35,118.79,669.7,118.79Z"/><rect class="cls-1" x="374.81" y="885.77" width="29.66" height="33.15" rx="6.11"/><rect class="cls-1" x="444.83" y="882.93" width="109.93" height="35.99" rx="10.47"/><rect class="cls-1" x="372.63" y="956.65" width="127.6" height="35.99" rx="14.07"/><rect class="cls-1" x="556.28" y="956.65" width="35.55" height="35.99" rx="11.67"/><path class="cls-1" d="M463.63,350.73c-1.54-.32-3.09-.57-4.6-1a19.52,19.52,0,0,1-10.78-6.62c-4-5.09-4.39-10.67-1.72-16.44,2.89-6.21,8-10.18,14.11-12.83a32,32,0,0,1,18.95-2.22,5.48,5.48,0,0,0,.58,0V228.23l95.95-19.56c0,1.59,0,3.08,0,4.58,0,31.83-.19,63.67.07,95.5.08,9.78-4.27,16.42-12.24,21-8.6,5-17.77,6.27-27.25,2.68-5.33-2-9.34-5.57-10.84-11.31-1.42-5.45.15-10.3,3.45-14.64,4.49-5.91,10.63-9.25,17.74-10.91a30.57,30.57,0,0,1,13-.29,4.48,4.48,0,0,0,.52,0V238.64l-65,13.25v1.55c0,24.06-.15,48.13.08,72.19.08,8.49-3.57,14.55-10.18,19.23a32.23,32.23,0,0,1-15.1,5.65,2.77,2.77,0,0,0-.65.22Z"/><path class="cls-1" d="M394,518.47l-1.17-.15a23.64,23.64,0,0,1-12.5-5,14.17,14.17,0,0,1-5.2-7.87,13.71,13.71,0,0,1-.24-4.09,22.43,22.43,0,0,1,1.31-6.48,19.59,19.59,0,0,1,8.64-10.16,31.62,31.62,0,0,1,9.76-3.64,23.8,23.8,0,0,1,5.77-.57,24.3,24.3,0,0,1,10.33,2.71l.23.09v-.55q0-39.79,0-79.59a3.51,3.51,0,0,1,2.7-3.64,5.91,5.91,0,0,1,4.94.51,3,3,0,0,1,1.51,2.73c0,1.64,0,3.28,0,4.92a7.09,7.09,0,0,0,1.78,4.64,18.05,18.05,0,0,0,5.32,4.06,91.44,91.44,0,0,0,9,4.2,97.36,97.36,0,0,1,9.22,4.26,27.27,27.27,0,0,1,6.64,4.84,13.4,13.4,0,0,1,4,9.37q0,11.67,0,23.34a4.63,4.63,0,0,1-9.14,1c-.13-.63-.12-1.29-.22-1.92a4.9,4.9,0,0,0-1.4-2.64,15.22,15.22,0,0,0-4.32-3c-3-1.57-6.25-2.78-9.43-4a71.53,71.53,0,0,1-10.17-4.8l-1.23-.75s0,0-.1,0v.49q0,24.5,0,49a20.5,20.5,0,0,1-3.67,11.88,24.48,24.48,0,0,1-15.31,10.31c-1.13.25-2.3.33-3.45.49-.1,0-.19.05-.29.07Z"/><path class="cls-1" d="M666.21,1073c31.22,0-8.29,0-8.29,0,231.21.07,427.4-197.13,431.86-428.84a14.92,14.92,0,0,0-14.9-15.08h0a14.83,14.83,0,0,0-14.66,14.78c-4.62,210.91-183.34,390.21-393.9,390.15h0Z"/><path class="cls-1" d="M669.39,1003.54c26.76,0-7.11,0-7.11,0,198.23.05,366.44-168.18,370.26-365.86a12.75,12.75,0,0,0-12.77-12.86h0a12.67,12.67,0,0,0-12.57,12.61c-4,179.93-157.19,332.89-337.72,332.84h0Z"/><rect class="cls-1" x="1060.12" y="562.62" width="29.66" height="33.15" rx="6.11"/><path class="cls-1" d="M797.64,616.08A136,136,0,0,0,661.6,480V455.72A160.36,160.36,0,0,1,822,616.08"/><path class="cls-1" d="M822,616.08A160.37,160.37,0,0,1,661.6,776.45V752.13a136,136,0,0,0,136-136"/><path class="cls-1" d="M664,536.7c-1.22,0-1.22,19.92,0,19.92a57.81,57.81,0,1,1,0,115.62c-1.21,0-1.21,19.93,0,19.93a77.74,77.74,0,1,0,0-155.47Z"/><path class="cls-1" d="M849.14,615.34c0-99.18-82.32-179.58-183.86-179.58v-32.1C785,403.66,882,498.44,882,615.34"/><path class="cls-1" d="M882,615.34C882,732.25,782.51,827,659.79,827l-1.87-29.66c104.12,0,191.22-82.83,191.22-182"/></svg>