<?xml version="1.0" standalone="no"?>
<!DOCTYPE svg PUBLIC "-//W3C//DTD SVG 20010904//EN"
 "http://www.w3.org/TR/2001/REC-SVG-20010904/DTD/svg10.dtd">
<svg version="1.0" xmlns="http://www.w3.org/2000/svg"
 width="332.000000pt" height="121.000000pt" viewBox="0 0 332.000000 121.000000"
 preserveAspectRatio="xMidYMid meet">

<g transform="translate(0.000000,121.000000) scale(0.100000,-0.100000)"
fill="#000000" stroke="none">
<path d="M0 605 l0 -605 1660 0 1660 0 0 605 0 605 -1660 0 -1660 0 0 -605z
m2596 436 c-4 -5 3 -7 14 -4 13 3 22 -1 27 -12 8 -22 -21 -45 -56 -45 -14 0
-46 -7 -71 -16 l-45 -16 -3 -239 c-3 -218 -2 -246 18 -325 16 -64 19 -89 11
-97 -9 -9 -14 -9 -20 1 -4 7 -14 12 -21 10 -28 -6 -40 89 -44 355 -2 142 -6
261 -10 264 -4 4 -23 1 -42 -6 -25 -9 -38 -10 -43 -3 -4 7 -27 9 -55 6 -40 -4
-47 -2 -38 9 9 10 9 16 0 25 -15 15 7 42 34 42 16 0 19 -5 16 -25 -6 -28 3
-32 22 -10 7 8 20 15 29 15 9 0 71 18 136 39 125 42 150 47 141 32z m-2321
-131 c-3 -6 4 -14 17 -19 18 -8 19 -10 5 -10 -17 -1 -17 -2 -3 -17 26 -25 19
-29 -47 -26 -53 3 -65 0 -82 -17 -17 -20 -17 -24 -3 -54 9 -17 39 -58 67 -90
61 -70 85 -140 79 -230 -5 -74 -30 -99 -113 -118 -45 -10 -60 -10 -80 1 -14 7
-25 17 -25 20 0 4 27 13 60 19 33 7 60 14 60 17 0 3 -15 3 -32 -1 -33 -7 -33
-6 7 15 67 37 73 45 69 99 -3 63 -20 94 -84 156 -55 53 -80 97 -80 141 0 43
31 95 64 110 37 16 130 19 121 4z m2816 1 c-11 -7 -9 -10 9 -16 18 -6 20 -9 9
-16 -10 -6 -11 -9 -1 -9 6 0 12 -8 12 -17 0 -15 -8 -18 -54 -15 -116 8 -127
-38 -36 -145 66 -78 88 -131 92 -226 2 -44 -2 -63 -18 -84 -26 -36 -124 -70
-162 -57 -45 16 -36 32 22 44 31 6 56 14 56 17 0 3 -12 2 -27 -1 -19 -5 -11 3
25 24 l52 31 -1 52 c-2 65 -8 76 -85 158 -72 76 -93 128 -74 183 11 33 42 69
70 79 26 9 126 8 111 -2z m-1911 -10 c0 -5 10 -7 22 -3 18 4 20 2 13 -14 -4
-10 -10 -46 -12 -79 -33 -454 -35 -465 -73 -465 -23 0 -31 12 -34 49 -3 39
-35 88 -46 71 -6 -9 -14 7 -25 46 -9 32 -19 66 -22 74 -9 21 -24 -95 -21 -153
2 -26 0 -47 -4 -47 -5 0 -9 17 -9 38 -1 25 -3 29 -6 12 -2 -14 -9 -50 -15 -80
l-12 -55 -7 45 c-16 99 -1 372 24 433 14 32 51 37 66 9 5 -10 28 -83 51 -163
23 -79 45 -148 49 -152 5 -4 11 79 14 185 4 118 11 206 19 226 12 30 28 43 28
23z m-689 -27 c68 -35 110 -224 90 -404 -8 -72 -13 -86 -39 -113 -26 -26 -34
-29 -68 -23 -74 14 -113 85 -134 244 -12 91 -5 181 16 224 8 15 15 31 16 35 0
5 7 18 16 31 17 26 59 29 103 6z m201 -70 c-2 -38 4 -103 13 -144 16 -78 67
-200 83 -200 10 0 22 33 22 60 0 13 -1 13 -10 0 -8 -13 -10 -13 -10 2 0 9 5
20 11 24 9 5 10 48 7 149 -5 126 -4 144 12 166 15 18 20 21 23 9 3 -8 8 -23
11 -32 6 -19 26 -25 26 -8 0 6 4 10 9 10 15 0 18 -161 5 -255 -20 -141 -53
-215 -95 -215 -38 0 -69 24 -96 76 -15 30 -33 54 -40 54 -23 0 -63 167 -63
266 0 35 5 56 16 65 9 7 20 23 25 36 7 19 12 21 31 14 21 -8 23 -14 20 -77z
m716 56 c69 -42 113 -226 77 -318 -10 -23 -20 -42 -24 -42 -4 0 -29 -34 -56
-76 -55 -85 -107 -132 -147 -132 -27 0 -35 8 -22 21 4 3 8 82 11 174 9 364 9
365 29 380 27 19 94 16 132 -7z m1465 6 c40 -30 14 -61 -80 -96 -63 -22 -63
-23 -63 -62 0 -33 3 -39 16 -34 43 16 64 18 64 4 0 -8 -5 -19 -11 -25 -7 -7
-2 -9 18 -6 20 3 12 -5 -32 -29 l-60 -33 -3 -65 c-3 -88 4 -98 57 -76 23 9 52
16 65 16 19 0 22 -4 19 -24 -4 -18 -18 -30 -52 -45 -55 -23 -76 -44 -67 -66 8
-22 -42 -41 -66 -26 -10 6 -28 11 -40 11 l-23 0 25 21 25 20 -32 -6 c-42 -8
-44 10 -3 33 29 16 30 19 30 91 0 55 -4 79 -16 92 -15 17 -15 20 0 44 9 14 19
45 23 70 5 39 4 45 -11 39 -18 -7 -23 20 -5 32 6 3 8 17 4 31 -4 16 -1 32 8
42 8 9 17 25 20 36 4 18 5 18 6 -2 1 -26 19 -31 27 -8 5 11 10 12 18 6 9 -7
28 -4 62 9 59 23 55 23 77 6z m-583 -68 c0 -138 10 -464 16 -502 6 -41 5 -48
-7 -40 -8 5 -21 7 -31 6 -23 -4 -27 24 -29 258 -2 238 6 300 36 300 9 0 15 -9
15 -22z m-352 -42 c8 12 122 17 139 6 7 -4 14 -25 15 -45 3 -30 7 -37 24 -37
12 0 33 -9 48 -21 31 -25 34 -65 10 -141 -18 -52 -54 -87 -137 -130 -38 -19
-39 -21 -35 -66 3 -45 2 -47 -21 -44 -14 1 -28 -3 -32 -10 -4 -7 -10 4 -14 26
-7 37 -9 38 -41 31 -19 -3 -38 -3 -43 0 -16 9 13 53 43 67 l29 13 -1 90 c-3
122 -11 175 -28 175 -7 0 -16 -5 -20 -11 -3 -6 -17 -8 -30 -5 -14 4 -24 2 -24
-4 0 -5 -5 -10 -12 -10 -7 0 -6 6 4 18 8 9 18 25 22 35 3 10 20 24 36 30 17 6
33 20 36 31 5 15 8 16 15 5 6 -9 11 -11 17 -3z"/>
<path d="M419 783 c-25 -29 -17 -214 12 -297 22 -64 49 -99 64 -84 11 10 28
120 28 178 0 88 -50 218 -84 220 -4 0 -13 -7 -20 -17z"/>
<path d="M1317 698 c-9 -160 -9 -250 1 -265 13 -21 89 60 102 109 13 46 7 144
-11 198 -14 43 -47 80 -69 80 -15 0 -18 -17 -23 -122z"/>
<path d="M1977 693 c-12 -11 -8 -23 7 -23 7 0 19 7 26 15 10 12 9 15 -7 15
-11 0 -23 -3 -26 -7z"/>
<path d="M1986 621 c-6 -9 1 -182 8 -188 2 -3 18 3 35 11 16 9 36 16 44 16 8
0 21 8 28 17 10 11 10 14 2 9 -22 -12 -14 1 17 32 30 31 40 72 18 72 -9 0 -8
4 2 10 12 8 12 10 -5 10 -17 0 -17 2 -5 10 10 7 -9 10 -62 10 -42 0 -79 -4
-82 -9z"/>
</g>
</svg>
