<svg xmlns="http://www.w3.org/2000/svg" data-name="Layer 1" width="1200" height="1200"><rect id="backgroundrect" width="100%" height="100%" x="0" y="0" fill="none" stroke="none"/><g class="currentLayer" style=""><title>Layer 1</title><path d="M909.1,793l-32.45-17L810.78,924.43l27.54,12.93c-3.12,15.82-6.2,31.4-9.84,49.78,9.36-9.31,17-16.88,24.58-24.47,13.21-13.2,13.2-13.2,30.35-5.31,4.14,1.89,8.3,3.73,13.14,5.91L979.2,830.48l-31.54-17.12c8.89-15.31,17.5-30.12,26.09-44.94,32.36-55.81,66-110.94,96.47-167.74C1083,577,1089.48,549.82,1098.16,524c6.15-18.31,11.16-37,16.73-55.5.59-2,1.52-3.82,2.29-5.73l3-.27c6.19,31.8,14,63.39,18.25,95.44,9.17,68.66,4.54,136.85-12.52,204-52,204.93-216.75,364-425.21,402.93-211.41,39.43-389.81-24.65-531-187C99.77,897.57,60.07,802.33,46.38,696.78c-29.71-229.1,86.08-451,290.55-558.43C426.4,91.33,522,69.1,622.4,76.71c212.81,16.12,368.11,121.18,466,310.82,1.67,3.22,2.67,7.9,1.69,11.22-16.52,55.56-32.77,111.21-50.6,166.34-4.92,15.22-14.39,29.07-22.5,43.11q-51.39,89-103.25,177.67C912.42,788.21,910.82,790.4,909.1,793ZM592.67,406.2c-118.17-2.13-217.12,95.72-220.48,213.28C368.67,743,468.74,846.1,590.69,846.1c123.38,0,221.65-97.22,221.73-219.54C812.5,504,715.05,406.24,592.67,406.2ZM80.9,598c0,5.84-.84,11.86.33,17.46.65,3.1,4.61,7.62,7.16,7.68,3.27.07,7.51-3.07,9.67-6,1.69-2.32.8-6.48,1.15-9.82,2.84-27.45,3.26-55.41,9-82.25,32.38-152.34,121-262,258.33-332.89,70.21-36.23,145.68-52.53,224.55-53.4,6.36-.07,11.25-1.72,11.33-8.92.09-7.71-5.25-10.07-11.81-9.52-29.36,2.44-59,3.12-88,8.09-105.11,18.07-197,63.71-273.39,138.4Q90,402.89,80.9,598ZM555.27,199.43l-.07-.55c-15.88,1.6-31.89,2.44-47.63,4.93-98.65,15.62-182.09,59.72-247.5,135.61-60,69.59-90.82,150.77-92.31,242.87-.11,6.94,1.17,12.68,9.59,12.51,7.94-.16,8.75-5.94,9-12.32.53-13.2.64-26.49,2.36-39.55q17.22-130.59,113.53-220.66c64.37-60.14,140.92-93.84,228.5-102.48,12.53-1.23,25.16-1.36,37.74-2,6.24-.31,10.79-3.82,9.35-9.72-.84-3.46-5.87-6.87-9.76-8.33S559.58,199.43,555.27,199.43ZM241.45,553.52c0,2.46.06,4.92,0,7.38-.2,6.56.32,13.23,8.79,13.32,8,.09,9.41-6,9.71-12.82.52-12,.61-24.09,2.7-35.82,18.1-101.44,76-171.67,169.31-213.39,36.11-16.13,74.47-22.57,113.81-23.62,6.23-.16,10.36-2.45,10.3-9-.06-7.05-5-9.54-11.21-9.4-56.33,1.3-109.62,14.33-157.86,43.93C297.7,368.91,248.86,448.7,241.45,553.52Zm69.6,5.46c0,3.37,0,6.75,0,10.13-.07,5.94,1.9,10.6,8.53,10.87,7.14.3,9.42-4.53,9.76-10.78.43-8,.21-16.06,1.43-23.91C343.12,466.13,387,410.67,459,377.2c27.59-12.81,57-18.93,87.53-19.06,7.1,0,13.61-1.05,13.26-10-.34-8.7-7.22-8.71-13.58-8.38-8.58.44-17.19.85-25.72,1.82C408.69,354.42,316.72,445.22,311.05,559Z" id="svg_1" class="selected" fill="#fb8501" fill-opacity="1"/><path d="M591.88,604c13.52-.12,23.54,9,23.76,21.61s-9.84,22.47-22.91,22.67c-12.89.2-23.64-9.57-24-21.8C568.39,614.4,579,604.11,591.88,604Z" id="svg_2"/></g></svg>